<svg width="1440" height="1024" viewBox="0 0 1440 1024" fill="none" xmlns="http://www.w3.org/2000/svg">
<path d="M338.5 671C149.5 671 0 1115.5 0 1115.5H1439.5V100C1439.5 100 1217.33 946.721 787 887C558.843 855.337 527.5 671 338.5 671Z" fill="#FEFAE0"/>
<path d="M606.5 733C417.5 733 268 1177.5 268 1177.5H1707.5V162C1707.5 162 1485.33 1008.72 1055 949C826.843 917.337 795.5 733 606.5 733Z" fill="#606C38"/>
<path d="M338.5 815C149.5 815 0 1259.5 0 1259.5H1439.5V244C1439.5 244 1217.33 1090.72 787 1031C558.843 999.337 527.5 815 338.5 815Z" fill="#283618"/>
<path d="M338.5 347.5C149.5 347.5 0 -97.0001 0 -97.0001H1439.5V918.5C1439.5 918.5 1217.33 71.7793 787 131.5C558.843 163.163 527.5 347.5 338.5 347.5Z" fill="#EBE5C3"/>
<path d="M729.49 271.733C553.688 202.347 577.813 -266 577.813 -266L1916.8 262.473L1543.98 1207.06C1543.98 1207.06 1648.18 337.904 1225.97 235.47C1002.12 181.16 905.293 341.119 729.49 271.733Z" fill="#606C38"/>
<path d="M1029.51 273.579C854.589 202.01 884.542 -266 884.542 -266L2216.84 279.1L1832.3 1218.98C1832.3 1218.98 1947.31 351.181 1526.41 243.499C1303.25 186.408 1204.44 345.148 1029.51 273.579Z" fill="#283618"/>
</svg>
